<svg aria-hidden="true" style="position: absolute; width: 0; height: 0; overflow: hidden;" version="1.1" xmlns="http://www.w3.org/2000/svg" xmlns:xlink="http://www.w3.org/1999/xlink">
<defs>
<symbol id="icon-logoevent" viewBox="0 0 64 32">
<path fill="#fff" style="fill: var(--color1, #fff)" d="M19.962 24.133c-0.601-1.67-1.837-2.504-3.708-2.505h-0.591v10.299h0.591c1.446 0 2.514-0.57 3.203-1.711 0.58-0.973 0.871-2.212 0.871-3.715-0.001-0.895-0.123-1.684-0.365-2.368zM9.828 24.256c0.601 1.67 1.837 2.504 3.708 2.504h0.591v-10.3h-0.591c-1.447 0-2.514 0.57-3.203 1.711-0.579 0.973-0.868 2.212-0.868 3.715 0 0.894 0.121 1.683 0.364 2.369zM0 0.013h7.858v2.728h-5.037v1.364h4.184v2.588h-4.184v1.379h5.037v2.728h-7.858v-10.787zM11.809 0h10.167l-5.084 11.019-5.083-11.019zM16.893 9.656l4.2-9.082h-8.385l4.185 9.082zM26.037 0.013h7.858v2.728h-5.037v1.364h4.184v2.588h-4.184v1.379h5.037v2.728h-7.858v-10.787zM38.73 10.784v-10.784h0.605l7.532 7.331v-7.331h0.573v10.787l-8.71-0.002zM55.671 10.8v-8.059h-4.076v-2.728h8.71v2.728h-4.076v8.059h-0.558zM4.633 18.611c0.682 0 1.224 0.104 1.627 0.31 0.907 0.45 1.519 1.369 1.519 2.432 0 0.017-0 0.034-0 0.051l0-0.003c0 0.004 0 0.010 0 0.015 0 0.515-0.15 0.995-0.409 1.398l0.006-0.010c-0.273 0.43-0.645 0.774-1.085 1.008l-0.016 0.008c0.574 0.206 1.052 0.56 1.405 1.016l0.005 0.007c0.357 0.44 0.574 1.008 0.574 1.626 0 0.006-0 0.012-0 0.018v-0.001c0 0.006 0 0.014 0 0.021 0 0.54-0.153 1.044-0.418 1.471l0.007-0.012c-0.27 0.444-0.639 0.803-1.078 1.054l-0.015 0.008c-0.219 0.12-0.473 0.216-0.74 0.276l-0.019 0.004c-0.279 0.062-0.651 0.093-1.115 0.093h-4.775v-10.786h4.526zM22.806 28.616c-0.811-0.708-1.211-1.769-1.201-3.185h2.526c-0.010 0.589 0.165 1.039 0.527 1.348s0.868 0.465 1.519 0.465c0.537 0 0.961-0.088 1.271-0.264s0.465-0.444 0.465-0.806c0-0.3-0.158-0.517-0.473-0.651-0.269-0.12-0.583-0.219-0.91-0.283l-0.028-0.005c-0.31-0.056-0.501-0.091-0.574-0.104-0.791-0.148-1.482-0.345-2.147-0.596l0.085 0.028c-0.58-0.219-1.069-0.564-1.453-1.003l-0.004-0.004c-0.392-0.455-0.589-1.054-0.589-1.798s0.196-1.377 0.589-1.898c0.392-0.522 0.917-0.912 1.573-1.17 0.685-0.264 1.413-0.395 2.146-0.387 0.94 0 1.754 0.176 2.441 0.527s1.227 0.883 1.619 1.596c0.182 0.301 0.304 0.636 0.357 0.984 0.040 0.306 0.061 0.614 0.062 0.922h-2.527c0-0.558-0.15-0.969-0.449-1.232s-0.765-0.395-1.395-0.395c-0.506 0-0.899 0.088-1.178 0.264s-0.419 0.414-0.419 0.713c0 0.331 0.186 0.574 0.558 0.728 0.396 0.163 0.868 0.307 1.356 0.409l0.054 0.010c0.93 0.186 1.656 0.364 2.178 0.535 0.543 0.182 1.001 0.495 1.353 0.902l0.003 0.004c0.382 0.434 0.573 1.044 0.573 1.829 0 0.744-0.207 1.384-0.62 1.922s-0.959 0.948-1.635 1.232c-0.695 0.288-1.441 0.433-2.193 0.426-1.498-0.002-2.653-0.357-3.464-1.064zM37.072 29.398v-8.059h-4.076v-2.727h8.711v2.728h-4.076v8.059h-0.558zM44.635 18.611h7.858v2.728h-5.037v1.364h4.185v2.588h-4.185v1.379h5.037v2.728h-7.858v-10.786zM64.132 29.398h-8.292v-10.786h4.2c0.899 0 1.632 0.16 2.201 0.48 0.547 0.301 0.988 0.733 1.293 1.255l0.009 0.016c0.292 0.5 0.465 1.101 0.465 1.743 0 0.014-0 0.028-0 0.042l0-0.002c0 0.010 0 0.021 0 0.033 0 0.808-0.28 1.551-0.749 2.136l0.005-0.007c-0.463 0.605-1.107 1.051-1.851 1.257l-0.025 0.006 2.744 3.828zM56.414 19.557v5.563h3.983l-3.983-5.564zM56.414 28.825h6.633l-2.263-3.146-0.48 0.016h-3.89v3.131zM56.817 19.184l4.216 5.889c0.699-0.143 1.293-0.515 1.716-1.033l0.004-0.005c0.424-0.498 0.682-1.149 0.682-1.86 0-0.011-0-0.022-0-0.032v0.002c0-0.010 0-0.022 0-0.033 0-0.56-0.156-1.084-0.426-1.53l0.007 0.013c-0.282-0.464-0.683-0.83-1.161-1.062l-0.016-0.007c-0.455-0.227-1.048-0.341-1.782-0.341h-3.239z"></path>
</symbol>
<symbol id="icon-polygon" viewBox="0 0 52 32">
<path fill="#939393" style="fill: var(--color2, #939393)" d="M26 32l-25.98-30h51.96l-25.98 30z"></path>
</symbol>
<symbol id="icon-search" viewBox="0 0 32 32">
<path fill="#939393" style="fill: var(--color2, #939393)" d="M4.024 4.024c2.472-2.486 5.895-4.024 9.677-4.024 0.013 0 0.026 0 0.040 0h-0.002c3.669 0 7.12 1.429 9.715 4.024 2.487 2.473 4.027 5.896 4.027 9.68 0 0.012-0 0.025-0 0.037v-0.002c0 0.010 0 0.023 0 0.035 0 3.453-1.284 6.607-3.4 9.010l0.013-0.015 7.632 7.629c0.17 0.17 0.275 0.405 0.275 0.664 0 0.519-0.42 0.939-0.939 0.939-0.259 0-0.494-0.105-0.664-0.275l-7.629-7.629c-2.387 2.1-5.538 3.381-8.988 3.381-0.014 0-0.029-0-0.043-0h0.002c-0.010 0-0.023 0-0.035 0-3.782 0-7.205-1.538-9.677-4.023l-0.001-0.001c-2.487-2.473-4.027-5.896-4.027-9.68 0-0.012 0-0.025 0-0.037v0.002c0-3.669 1.429-7.12 4.024-9.715zM5.352 22.128c2.148 2.143 5.113 3.468 8.387 3.468s6.239-1.325 8.387-3.468l-0 0c2.144-2.148 3.469-5.113 3.469-8.388s-1.326-6.24-3.47-8.388l0 0c-2.14-2.143-5.099-3.469-8.367-3.469-0.006 0-0.012 0-0.018 0h0.001c-0.006 0-0.014-0-0.021-0-3.267 0-6.225 1.325-8.365 3.467l-0 0c-2.145 2.148-3.471 5.114-3.471 8.389s1.326 6.241 3.471 8.389l-0-0z"></path>
</symbol>
<symbol id="icon-vectorlocation" viewBox="0 0 22 32">
<path fill="#fff" style="fill: var(--color1, #fff)" d="M11.2 0c-6.176 0-11.2 4.992-11.2 11.123 0 7.709 11.21 20.877 11.21 20.877s11.19-13.549 11.19-20.877c0-6.134-5.024-11.123-11.2-11.123zM14.579 14.381c-0.931 0.925-2.157 1.386-3.379 1.386s-2.448-0.461-3.379-1.386c-0.863-0.857-1.398-2.045-1.398-3.357s0.534-2.5 1.397-3.357l0-0c0.902-0.896 2.102-1.389 3.379-1.389s2.477 0.493 3.379 1.389c1.862 1.853 1.862 4.864 0 6.714z"></path>
</symbol>
</defs>
</svg>
